<svg xmlns="http://www.w3.org/2000/svg" version="1.1" xmlns:xlink="http://www.w3.org/1999/xlink" xmlns:svgjs="http://svgjs.com/svgjs" width="400" height="400"><svg xmlns="http://www.w3.org/2000/svg" xmlns:xlink="http://www.w3.org/1999/xlink" version="1.1" width="400" height="400">
    <path style="stroke: rgb(224,224,224); stroke-opacity: 0; stroke-width: 1; stroke-dasharray: none; stroke-linecap: butt; stroke-dashoffset: 0; stroke-linejoin: miter; stroke-miterlimit: 4; fill: #1f1f1f; fill-rule: evenodd; opacity: 1;" d="M 100.014 28.39 C 96.875 29.555 94.291 31.394 89.561 35.829 C 80.18 44.626 69.164 54.165 64 57.964 C 58.731 61.841 58.377 62.106 56.42 63.637 C 45.374 72.279 27.437 81.097 20.724 81.186 C 20.132 81.194 19.539 81.374 19.408 81.588 C 19.173 81.968 20.972 89.145 21.611 90.374 C 21.79 90.718 22.339 92.08 22.832 93.4 C 24.732 98.491 30.306 107.158 34.082 110.895 C 36.214 113.005 40.234 116.4 40.6 116.4 C 40.785 116.4 41.221 116.648 41.569 116.952 C 46.939 121.647 61.895 125.069 69.8 123.413 C 77.947 121.705 79.037 121.01 81.649 115.852 C 82.779 113.624 84.039 111.322 84.451 110.738 C 84.863 110.154 85.2 109.583 85.2 109.47 C 85.2 109.087 89.244 102.256 91.509 98.813 C 99.998 85.908 108.9 76.687 119.9 69.403 C 123.449 67.053 123.46 67.375 119.698 63.443 C 115.807 59.376 112.898 55.492 111.226 52.132 L 109.929 49.526 L 108.387 52.063 C 107.538 53.458 106.538 55.14 106.163 55.8 C 103.94 59.714 93.909 70.797 88.383 75.446 C 77.63 84.492 70.444 88.761 57.044 94.065 C 54.509 95.068 44.911 97.888 41.719 98.567 C 36.186 99.744 33.692 93.667 39.105 92.196 C 57.065 87.315 67.266 82.597 79.2 73.652 C 87.593 67.361 97.029 57.419 101.12 50.558 C 109.811 35.981 110.366 35.676 114.153 43.4 C 117.743 50.723 118.001 51.196 120.031 54.2 C 122.739 58.207 128.356 63.2 130.156 63.2 C 130.69 63.2 139.154 58.857 138.8 58.765 C 138.69 58.736 138.028 58.664 137.33 58.604 C 135.197 58.423 133.939 57.099 130.425 51.336 C 118.168 31.23 114.893 28.038 106.2 27.723 C 102.919 27.604 101.807 27.724 100.014 28.39 M 294 27.851 C 287.097 29.146 281.561 34.241 272.916 47.254 C 268.023 54.62 265.539 57.797 264.071 58.566 C 262.962 59.147 268.531 62.4 270.634 62.4 C 274.265 62.4 285.2 50.167 285.2 46.105 C 285.2 45.196 287.921 39.795 288.764 39.032 C 290.636 37.338 292.215 38.853 295.818 45.8 C 304.283 62.122 317.199 74.913 332.911 82.534 C 341.997 86.942 344.224 87.795 353.4 90.386 C 363.458 93.226 364.989 94.771 361.169 98.228 C 359.821 99.448 345.905 96.21 338.551 92.965 C 327.949 88.286 322.326 84.988 315.2 79.271 C 313.99 78.3 312.46 77.073 311.8 76.543 C 305.73 71.672 299.262 64.084 294.033 55.7 C 290.755 50.444 290 49.611 290 51.251 C 290 53.978 285.025 60.33 279.3 64.911 C 276.766 66.939 276.743 67.137 278.903 68.363 C 283.414 70.921 293.291 79.028 297.11 83.307 C 303.074 89.988 305.432 92.805 308.105 96.441 C 309.726 98.648 314.681 106.886 316.62 110.6 C 322.037 120.976 321.914 120.811 325.089 121.999 C 344.535 129.275 369.944 115.006 377.796 92.4 C 381.278 82.376 381.311 82 378.718 82 C 378.317 82 377.677 81.837 377.295 81.637 C 376.913 81.438 375.79 81.065 374.8 80.809 C 366.403 78.637 351.471 70.514 341.518 62.705 C 340.042 61.547 336.69 58.943 334.069 56.918 C 328.19 52.377 325.408 49.869 316 40.628 C 304.273 29.11 300.125 26.701 294 27.851 M 190.6 54.02 C 165.598 55.741 138.421 64.125 123.114 74.84 C 110.808 83.455 105.764 89.156 95.188 106.4 C 91.659 112.153 84.602 125.821 79.903 136 C 79.142 137.65 78.06 139.99 77.5 141.2 C 72.866 151.206 66.751 166.599 64.786 173.2 C 64.295 174.85 63.651 177.01 63.355 178 C 62.756 180.001 61.384 188.741 61.02 192.865 C 58.909 216.804 73.43 244.969 99.2 266.915 C 106.591 273.21 108 274.48 108 274.853 C 108 275.474 104.732 278.8 104.121 278.8 C 100.769 278.8 80.492 259.08 73.081 248.615 C 72.686 248.057 72.236 247.601 72.081 247.603 C 71.826 247.605 69.373 255.062 68.331 259 C 68.098 259.88 67.759 261.05 67.577 261.6 C 67.396 262.15 67.047 264.58 66.802 267 C 66.557 269.42 66.142 272.66 65.88 274.2 C 65.231 278.014 65.235 300.845 65.885 304.6 C 66.152 306.14 66.646 309.65 66.983 312.4 C 67.617 317.571 67.791 318.542 69.174 324.6 C 69.626 326.58 70.459 330.54 71.026 333.4 C 72.01 338.371 74.058 345.787 74.873 347.327 C 75.215 347.975 75.353 347.992 76.129 347.486 C 82.158 343.556 94.934 344.579 104.6 349.767 C 105.92 350.475 107.324 351.176 107.721 351.323 C 108.558 351.634 108.723 351.953 105.379 346.8 C 101.913 341.459 97.512 333.666 93.519 325.8 C 89.961 318.793 88.038 314.06 85.598 306.312 C 81.563 293.501 81.06 291.604 79.998 285.2 C 79.437 281.814 78.84 278.73 78.218 276 C 77.39 272.37 78.391 270.4 81.063 270.4 C 82.982 270.4 85.2 272.7 85.2 274.689 C 85.2 276.898 86.503 283.618 88.013 289.2 C 88.459 290.85 89.088 293.467 89.411 295.016 C 91.313 304.144 97.689 319.971 103.147 329.11 C 104.496 331.37 105.6 333.326 105.6 333.457 C 105.6 333.968 118.953 353.797 121.522 357.1 C 123.019 359.025 124.457 361.098 124.717 361.708 C 125.173 362.776 125.235 362.796 126.495 362.277 C 127.213 361.981 128.97 361.513 130.4 361.236 C 131.83 360.959 134.17 360.488 135.6 360.187 C 146.649 357.868 163.796 358.872 166.98 362.024 C 168.218 363.25 168.915 362.436 168.626 360.1 C 165.661 336.12 165.67 318.109 168.648 315.726 C 169.96 314.676 171.489 314.538 172.624 315.368 C 173.362 315.908 173.401 316.536 173.422 328.268 C 173.443 340.14 174.157 348.961 175.19 350.116 C 175.345 350.29 176.266 350.233 177.236 349.99 C 181.334 348.961 182.405 348.753 186.4 348.203 C 195.203 346.992 197.638 346.8 204.202 346.8 C 212.046 346.8 217.729 347.306 224.974 348.651 C 228.13 349.237 230.292 349.468 230.517 349.243 C 231.457 348.303 232.112 339.95 232.157 328.34 C 232.209 315.009 232.254 314.8 235.062 314.8 C 237.785 314.8 238.743 317.043 239.165 324.4 C 239.466 329.639 239.031 341.837 238.374 346.6 C 238.131 348.36 237.777 351.06 237.588 352.6 C 237.399 354.14 236.997 357.065 236.696 359.1 C 236.121 362.991 236.247 363.343 237.822 362.24 C 240.5 360.364 247.787 358.808 253.911 358.803 C 257.6 358.8 269.363 359.807 269.961 360.176 C 270.093 360.257 271.82 360.609 273.8 360.958 C 275.78 361.308 277.778 361.699 278.239 361.828 C 279.338 362.134 281.778 359.132 289.032 348.549 C 292.165 343.979 294.36 340.363 299.323 331.6 C 305.197 321.227 310.954 307.26 313.666 296.8 C 316.351 286.444 316.453 286.013 317.388 281 C 317.717 279.24 317.989 276.863 317.993 275.719 C 318.005 272.094 319.467 270.4 322.58 270.4 C 325.318 270.4 326.217 272.477 325.042 276.086 C 324.735 277.029 324.364 278.97 324.219 280.4 C 323.993 282.621 322.29 291.402 321.194 296 C 319.732 302.136 319.487 302.991 317.59 308.6 C 316.995 310.36 316.053 313.24 315.496 315 C 314.599 317.835 309.955 328.754 309.2 329.8 C 309.042 330.02 308.144 331.64 307.206 333.4 C 304.182 339.07 301.493 343.757 300.264 345.499 C 298.696 347.722 298.937 347.843 302.534 346.635 C 309.899 344.163 317.58 344.019 322.164 346.268 C 323.245 346.798 324.261 347.089 324.423 346.916 C 324.656 346.666 327.298 334.725 329.627 323.4 C 329.808 322.52 330.328 320.18 330.783 318.2 C 331.238 316.22 331.779 313.43 331.985 312 C 332.191 310.57 332.642 307.42 332.988 305 C 333.333 302.58 333.791 299.7 334.006 298.6 C 335.2 292.474 335.208 275.796 334.02 270 C 333.817 269.01 333.545 266.991 333.416 265.514 C 333.199 263.038 331.886 254.895 330.738 248.9 C 330.152 245.841 330.134 245.84 327.738 248.764 C 317.261 261.549 306.282 272.047 298.687 276.54 C 295.969 278.148 295.273 278.14 293.505 276.485 C 290.624 273.788 291.615 272.448 302.608 264.183 C 315.783 254.276 330.197 236.46 335.441 223.6 C 338.058 217.182 339.924 208.497 340.266 201.149 C 340.516 195.76 340.416 194.601 338.742 183.4 C 337.887 177.682 334.757 166.482 332.595 161.4 C 332.314 160.74 331.445 158.58 330.664 156.6 C 329.883 154.62 327.958 150.3 326.386 147 C 324.814 143.7 323.11 140.01 322.599 138.8 C 321.644 136.541 319.261 131.501 313.459 119.472 C 300.003 91.577 281.829 73.953 255.706 63.47 C 238.039 56.38 211.75 52.564 190.6 54.02 M 127.232 139.657 C 138.91 143.156 139.213 178.15 127.642 187.048 C 113.923 197.6 103.855 162.189 115.63 144.8 C 119.133 139.626 122.358 138.197 127.232 139.657 M 277.113 140.16 C 287.265 145.328 290.259 170.225 282.286 183.178 C 274.101 196.478 261.415 184.341 261.404 163.2 C 261.395 145.535 268.165 135.605 277.113 140.16 M 121.908 145.1 C 120.306 146.793 120.303 147.906 121.896 149.384 C 124.062 151.392 127.241 150.97 127.837 148.595 C 128.695 145.175 124.293 142.58 121.908 145.1 M 271.959 144.913 C 270.095 146.165 269.893 148.027 271.446 149.648 C 273.321 151.605 275.443 151.03 276.605 148.25 C 277.907 145.135 274.873 142.956 271.959 144.913 M 207.027 168.425 C 209.724 168.908 210.217 169.05 216 171.009 C 233.657 176.988 248.776 193.394 251.196 209.2 C 253.779 226.077 244.492 240.006 228 243.989 C 217.288 246.576 181.11 246.928 171.2 244.541 C 136.937 236.29 140.263 190.426 176.32 173.942 C 184.788 170.071 186.59 169.447 192.2 168.446 C 195.056 167.937 204.226 167.924 207.027 168.425 M 191 175.56 C 189.46 175.982 187.33 176.704 186.267 177.164 C 185.204 177.624 184.114 178 183.845 178 C 182.954 178 175.775 181.862 171.958 184.395 C 154.257 196.14 148.334 220.075 160.347 231.312 C 167.419 237.927 175.238 239.421 200.8 239.041 C 228.086 238.636 234.835 236.584 241.541 226.655 C 249.626 214.685 240.124 190.842 223.8 182.133 C 222.92 181.664 221.57 180.935 220.8 180.514 C 212.022 175.713 198.588 173.48 191 175.56 M 183.73 187.573 C 194.669 191.732 192.999 226.041 181.704 229.178 C 173.527 231.449 167.1 222.078 168.367 209.732 C 169.918 194.616 176.663 184.887 183.73 187.573 M 222.891 188.617 C 232.242 194.466 235.665 218.576 228.226 226.189 C 223.745 230.774 218.031 229.393 215.031 223 C 213.526 219.794 213.41 219.374 212.008 212.08 C 211.265 208.219 211.495 197.739 212.399 194.203 C 214.081 187.628 217.986 185.549 222.891 188.617 M 310.2 351.582 C 305.831 352.271 301.503 354.353 296.4 358.22 C 295.19 359.137 293.795 360.014 293.3 360.17 C 292.805 360.326 292.4 360.712 292.4 361.027 C 292.4 361.512 294.247 361.6 304.374 361.6 C 310.96 361.6 316.78 361.764 317.307 361.965 C 318.663 362.48 318.902 362.216 320.54 358.384 C 322.398 354.036 322.441 354.266 319.5 352.825 C 316.743 351.474 313.574 351.05 310.2 351.582 M 81.524 352.213 C 79.097 352.877 77.197 354.01 77.21 354.786 C 77.244 356.981 79.129 361.799 79.943 361.771 C 80.415 361.756 87.212 361.711 95.049 361.671 C 110.83 361.592 110.259 361.717 106.532 359.153 C 101.947 355.999 97.084 353.561 92.372 352.056 C 90.511 351.462 83.92 351.557 81.524 352.213 M 249.266 366.831 C 244.335 367.307 234.831 370.68 235.477 371.725 C 235.875 372.368 267.311 371.803 268.499 371.132 C 272.643 368.791 272.898 368.196 269.9 367.872 C 255.157 366.274 255.074 366.27 249.266 366.831 M 140.4 367.177 C 133.088 368.033 131.739 368.656 133.981 370.14 C 137.24 372.296 168.4 373.619 168.4 371.6 C 168.4 371.189 164.724 369.465 162 368.599 C 160.79 368.214 159.35 367.72 158.8 367.5 C 157.556 367.004 143.922 366.764 140.4 367.177"></path>
</svg><style>@media (prefers-color-scheme: light) { :root { filter: none; } }
</style></svg>